<svg width="229" height="259" viewBox="0 0 229 259" fill="none" xmlns="http://www.w3.org/2000/svg">
<rect width="229" height="259" transform="matrix(1 0 0 -1 0 259)" fill="#C9BB3F"/>
<line opacity="0.15" y1="40.7653" x2="229" y2="40.7653" stroke="black" stroke-width="0.469432"/>
<line opacity="0.15" y1="213.765" x2="229" y2="213.765" stroke="black" stroke-width="0.469432"/>
<path d="M46.1028 212.608V213.078H46.5723H183.379H183.848V212.608V184.604V184.134H183.379H76.5152V137.662H160.045H160.515V137.192V109.188V108.718H160.045H125.638V69.1244H183.379H183.848V68.655V40.6504V40.181H183.379H95.6948H95.2254V40.6504V108.718H76.5152V40.6504V40.181H76.0458H46.5723H46.1028V40.6504V212.608Z" stroke="black" stroke-width="0.938865"/>
<rect opacity="0.2" x="39.9219" y="40.0459" width="8.55039" height="8.55039" transform="rotate(-45 39.9219 40.0459)" fill="black"/>
<rect opacity="0.2" x="39.9219" y="212.954" width="8.55039" height="8.55039" transform="rotate(-45 39.9219 212.954)" fill="black"/>
<rect opacity="0.2" x="70.3242" y="40.0459" width="8.55039" height="8.55039" transform="rotate(-45 70.3242 40.0459)" fill="black"/>
<rect opacity="0.2" x="89.3242" y="40.0459" width="8.55039" height="8.55039" transform="rotate(-45 89.3242 40.0459)" fill="black"/>
<rect opacity="0.2" x="177.678" y="40.0459" width="8.55039" height="8.55039" transform="rotate(-45 177.678 40.0459)" fill="black"/>
<rect opacity="0.2" x="177.678" y="212.954" width="8.55039" height="8.55039" transform="rotate(-45 177.678 212.954)" fill="black"/>
<rect x="44.1921" y="38.2702" width="3.81135" height="3.81135" fill="#C9BB3F" stroke="black" stroke-width="0.938865"/>
<rect x="74.5925" y="38.2702" width="3.81135" height="3.81135" fill="#C9BB3F" stroke="black" stroke-width="0.938865"/>
<rect x="93.5944" y="38.2702" width="3.81135" height="3.81135" fill="#C9BB3F" stroke="black" stroke-width="0.938865"/>
<rect x="181.948" y="38.2702" width="3.81135" height="3.81135" fill="#C9BB3F" stroke="black" stroke-width="0.938865"/>
<rect x="181.948" y="66.7712" width="3.81135" height="3.81135" fill="#C9BB3F" stroke="black" stroke-width="0.938865"/>
<rect x="123.997" y="66.7712" width="3.81135" height="3.81135" fill="#C9BB3F" stroke="black" stroke-width="0.938865"/>
<rect x="123.997" y="106.673" width="3.81135" height="3.81135" fill="#C9BB3F" stroke="black" stroke-width="0.938865"/>
<rect x="158.198" y="106.673" width="3.81135" height="3.81135" fill="#C9BB3F" stroke="black" stroke-width="0.938865"/>
<rect x="158.198" y="136.125" width="3.81135" height="3.81135" fill="#C9BB3F" stroke="black" stroke-width="0.938865"/>
<rect x="74.5925" y="136.125" width="3.81135" height="3.81135" fill="#C9BB3F" stroke="black" stroke-width="0.938865"/>
<rect x="74.5925" y="181.726" width="3.81135" height="3.81135" fill="#C9BB3F" stroke="black" stroke-width="0.938865"/>
<rect x="181.948" y="181.726" width="3.81135" height="3.81135" fill="#C9BB3F" stroke="black" stroke-width="0.938865"/>
<rect x="181.948" y="211.177" width="3.81135" height="3.81135" fill="#C9BB3F" stroke="black" stroke-width="0.938865"/>
<rect x="44.1921" y="211.177" width="3.81135" height="3.81135" fill="#C9BB3F" stroke="black" stroke-width="0.938865"/>
</svg>
